<svg xmlns="http://www.w3.org/2000/svg" width="760" height="440" viewBox="0 0 760 440" role="img" aria-labelledby="title desc">
  <title id="title">Candidate gap for Qwen3-4B to Qwen3-8B on Natural Questions</title>
  <desc id="desc">Measured candidate gap values for a one-million-document Natural Questions evaluation at candidate depths 20, 50, 100, 200, 500, and 1000.</desc>
  <rect width="760" height="440" fill="#ffffff"/>
  <text x="58" y="48" fill="#111827" font-family="system-ui, -apple-system, Segoe UI, sans-serif" font-size="20" font-weight="650">Candidate gap G(K)</text>
  <text x="58" y="73" fill="#4b5563" font-family="system-ui, -apple-system, Segoe UI, sans-serif" font-size="13">Qwen3-4B → Qwen3-8B · Natural Questions · 1M documents</text>
  <line x1="90" y1="350" x2="700" y2="350" stroke="#374151" stroke-width="1.2"/>
  <line x1="90" y1="100" x2="90" y2="350" stroke="#374151" stroke-width="1.2"/>
  <g stroke="#e5e7eb" stroke-width="1">
    <line x1="90" y1="100" x2="700" y2="100"/>
    <line x1="90" y1="150" x2="700" y2="150"/>
    <line x1="90" y1="200" x2="700" y2="200"/>
    <line x1="90" y1="250" x2="700" y2="250"/>
    <line x1="90" y1="300" x2="700" y2="300"/>
  </g>
  <g fill="#4b5563" font-family="system-ui, -apple-system, Segoe UI, sans-serif" font-size="12">
    <text x="82" y="354" text-anchor="end">-0.001</text>
    <text x="82" y="304" text-anchor="end">0.000</text>
    <text x="82" y="254" text-anchor="end">0.001</text>
    <text x="82" y="204" text-anchor="end">0.002</text>
    <text x="82" y="154" text-anchor="end">0.003</text>
    <text x="82" y="104" text-anchor="end">0.004</text>
    <text x="395" y="395" text-anchor="middle">source candidate depth K</text>
    <text x="30" y="230" text-anchor="middle" transform="rotate(-90 30 230)">candidate gap (lower is better)</text>
  </g>
  <polyline points="140,135 250,322 360,295 470,290 580,286 690,278" fill="none" stroke="#2563eb" stroke-width="3"/>
  <g fill="#2563eb" stroke="#ffffff" stroke-width="2">
    <circle cx="140" cy="135" r="5"/>
    <circle cx="250" cy="322" r="5"/>
    <circle cx="360" cy="295" r="5"/>
    <circle cx="470" cy="290" r="5"/>
    <circle cx="580" cy="286" r="5"/>
    <circle cx="690" cy="278" r="5"/>
  </g>
  <g fill="#111827" font-family="system-ui, -apple-system, Segoe UI, sans-serif" font-size="12">
    <text x="140" y="372" text-anchor="middle">K=20</text>
    <text x="250" y="372" text-anchor="middle">K=50</text>
    <text x="360" y="372" text-anchor="middle">K=100</text>
    <text x="470" y="372" text-anchor="middle">K=200</text>
    <text x="580" y="372" text-anchor="middle">K=500</text>
    <text x="690" y="372" text-anchor="middle">K=1000</text>
    <text x="140" y="122" text-anchor="middle">0.00329</text>
    <text x="250" y="338" text-anchor="middle">-0.00043</text>
    <text x="360" y="311" text-anchor="middle">0.00010</text>
    <text x="470" y="306" text-anchor="middle">0.00020</text>
    <text x="580" y="302" text-anchor="middle">0.00029</text>
    <text x="690" y="294" text-anchor="middle">0.00043</text>
  </g>
</svg>
